<?xml version="1.0" encoding="UTF-8" standalone="no"?>
<!-- Created with Inkscape (http://www.inkscape.org/) -->
<svg
   xmlns:svg="http://www.w3.org/2000/svg"
   xmlns="http://www.w3.org/2000/svg"
   version="1.0"
   width="313"
   height="313"
   id="svg4770">
  <defs
     id="defs4772">
    <g
       clip-path="url(#ball)"
       id="black_stuff">
      <g
         id="g5002">
        <path
           d="M 6,-32 C 19.333333,-29.333333 32.666667,-25 46,-19 C 53.333333,-29.666667 59.333333,-39 64,-47 C 54.666667,-61 45.666667,-70.666667 37,-76 C 23.666667,-75.333333 11.666667,-72.666667 1,-68 C 3,-56.666667 4.6666667,-44.666667 6,-32"
           id="path5004" />
        <path
           d="M -26,-2 C -38.666667,-6 -50.666667,-9 -62,-11 C -70,-0.33333333 -74.666667,10.666667 -76,22 C -71.333333,34 -62.666667,44.666667 -50,54 C -38,49.333333 -27,44.333333 -17,39 C -21,23 -24,9.3333333 -26,-2"
           id="path5006" />
        <path
           d="M -95,22 C -99.666667,15.333333 -102,5.3333333 -102,-8 L -102,80 L -85,80 C -91.666667,56.666667 -95,37.333333 -95,22"
           id="path5008" />
        <path
           d="M 55,24 C 45.666667,35.333333 35.333333,44.666667 24,52 C 26.666667,60.666667 29,69.666667 31,79 C 47,78.333333 59.333333,74.333333 68,67 C 74.666667,55.666667 78.666667,45 80,35 C 70,30.333333 61.666667,26.666667 55,24"
           id="path5010" />
        <path
           d="M 0,120 L -3,95 C -17.666667,93.666667 -30.666667,89.333333 -42,82 C -47.333333,83.333333 -53.333333,83 -60,81"
           id="path5012" />
        <path
           d="M -90,-48 C -83.333333,-50.666667 -76,-51 -68,-49 C -57.333333,-63.666667 -46.333333,-73 -35,-77 C -35,-92.333333 -36.666667,-100 -40,-100 L -100,-100"
           id="path5014" />
        <path
           d="M 100,-55 L 87,-37 C 94.333333,-19 97.666667,-5 97,5 L 100,6"
           id="path5016" />
      </g>
      <g
         id="g5018">
        <path
           d="M 6,-32 C -10,-18.666667 -20.666667,-8.6666667 -26,-2 M 46,-19 C 51.333333,-3 54.333333,11.333333 55,24 M 64,-47 C 72.666667,-45 80.333333,-41.666667 87,-37 M 37,-76 C 38.333333,-85.333333 38,-93.333333 36,-100 M 1,-68 C -8.3333333,-74 -20.333333,-77 -35,-77 M -62,-11 C -65.333333,-20.333333 -67.333333,-33 -68,-49 M -76,22 C -82,23.333333 -88.333333,23.333333 -95,22 M -50,54 C -49.333333,64.666667 -46.666667,74 -42,82 M -17,39 C -5.6666667,45 8,49.333333 24,52 M 31,79 C 23.666667,87.666667 12.333333,93 -3,95 M 68,67 L 80,80 M 80,35 C 86.666667,28.333333 92.333333,18.333333 97,5"
           id="path5020" />
      </g>
    </g>
    <radialGradient
       cx="0"
       cy="0"
       r="100"
       fx="0"
       fy="0"
       id="shadow2"
       gradientUnits="userSpaceOnUse">
      <stop
         style="stop-color:#ffffff;stop-opacity:0"
         offset="0"
         id="stop4993" />
      <stop
         style="stop-color:#ffffff;stop-opacity:0"
         offset="0.80000001"
         id="stop4995" />
      <stop
         style="stop-color:#000000;stop-opacity:0.30000001"
         offset="0.99000001"
         id="stop4997" />
      <stop
         style="stop-color:#000000;stop-opacity:1"
         offset="1"
         id="stop4999" />
    </radialGradient>
    <radialGradient
       cx="-19.999998"
       cy="-39.999996"
       r="160"
       fx="-19.999998"
       fy="-39.999996"
       id="shadow1"
       gradientUnits="userSpaceOnUse">
      <stop
         style="stop-color:#ffffff;stop-opacity:1"
         offset="0"
         id="stop4986" />
      <stop
         style="stop-color:#ffffff;stop-opacity:1"
         offset="0.40000001"
         id="stop4988" />
      <stop
         style="stop-color:#eeeeee;stop-opacity:1"
         offset="0.80000001"
         id="stop4990" />
    </radialGradient>
    <clipPath
       id="ball">
      <circle
         cx="0"
         cy="0"
         r="100"
         id="circle4983" />
    </clipPath>
  </defs>
  <g
     transform="translate(342.21429,-795.86218)"
     id="layer1">
    <circle
       cx="0"
       cy="0"
       r="100"
       transform="matrix(-1.3602713,0,0,-1.3602713,-185.71429,952.36218)"
       style="fill:#ffffff;stroke:none"
       id="circle5022" />
    <circle
       cx="0"
       cy="0"
       r="100"
       transform="matrix(-1.3602713,0,0,-1.3602713,-185.71429,952.36218)"
       style="fill:url(#shadow1);stroke:none"
       id="circle5024" />
    <path
       d="M -193.87592,995.89086 C -212.01287,992.26347 -230.14982,986.36896 -248.28677,978.20733 C -258.26209,992.7169 -266.42372,1005.4128 -272.77165,1016.2949 C -260.07579,1035.3387 -247.83335,1048.488 -236.04433,1055.7428 C -217.90738,1054.836 -201.58412,1051.2086 -187.07456,1044.8606 C -189.7951,1029.4442 -192.06222,1013.121 -193.87592,995.89086"
       style="stroke:#eeeeee;stroke-width:9.52189922"
       id="path5091" />
    <path
       d="M -150.34724,955.08272 C -133.11713,960.52381 -116.79388,964.60462 -101.37747,967.32516 C -90.495299,952.8156 -84.147366,937.85262 -82.333671,922.43621 C -88.681604,906.11296 -100.47062,891.60339 -117.70073,878.90753 C -134.02398,885.25546 -148.98696,892.05682 -162.58968,899.3116 C -157.14859,921.07594 -153.06778,939.66631 -150.34724,955.08272"
       style="stroke:#eeeeee;stroke-width:9.52189922"
       id="path5093" />
    <path
       d="M -260.52921,919.71567 C -247.83335,904.29926 -233.77721,891.60339 -218.3608,881.62807 C -221.98819,869.83905 -225.16216,857.59661 -227.8827,844.90075 C -249.64704,845.8076 -266.42372,851.24868 -278.21274,861.224 C -287.28121,876.64041 -292.7223,891.14997 -294.53599,904.75268 C -280.93328,911.10062 -269.59769,916.08828 -260.52921,919.71567"
       style="stroke:#eeeeee;stroke-width:9.52189922"
       id="path5097" />
    <path
       d="M -63.289873,1017.6552 C -72.358349,1021.2826 -82.333671,1021.736 -93.215842,1019.0155 C -107.7254,1038.9661 -122.68839,1051.662 -138.10479,1057.1031 C -138.10479,1077.9606 -135.83768,1088.3893 -131.30344,1088.3893 L -96.68716,1058.3893"
       style="stroke:#eeeeee;stroke-width:9.52189922"
       id="path5101" />
    <path
       d="M -193.87592,995.89086 C -172.11158,977.75391 -157.60202,964.1512 -150.34724,955.08272 M -248.28677,978.20733 C -255.54155,956.44299 -259.62236,936.94577 -260.52921,919.71567 M -272.77165,1016.2949 C -284.56067,1013.5744 -294.98942,1009.0402 -304.05789,1002.6922 M -236.04433,1055.7428 C -237.85802,1068.4387 -237.4046,1079.3208 -234.68406,1088.3893 M -187.07456,1044.8606 C -174.3787,1053.0223 -158.05544,1057.1031 -138.10479,1057.1031 M -101.37747,967.32516 C -96.843232,980.02103 -94.12269,997.25113 -93.215842,1019.0155 M -82.333671,922.43621 C -74.172043,920.62252 -65.556992,920.62252 -56.488517,922.43621 M -117.70073,878.90753 C -118.60757,864.39797 -122.23496,851.7021 -128.5829,840.81993 M -162.58968,899.3116 C -178.00609,891.14997 -196.59646,885.25546 -218.3608,881.62807 M -227.8827,844.90075 C -217.90738,833.11173 -202.49097,825.85695 -181.63348,823.13641 M -294.53599,904.75268 C -303.60447,913.82116 -311.31267,927.42387 -317.66061,945.56082"
       style="stroke:#eeeeee;stroke-width:9.52189922"
       id="path5107" />
    <path
       d="M -193.87592,995.89086 C -212.01287,992.26347 -230.14982,986.36896 -248.28677,978.20733 C -258.26209,992.7169 -266.42372,1005.4128 -272.77165,1016.2949 C -260.07579,1035.3387 -247.83335,1048.488 -236.04433,1055.7428 C -217.90738,1054.836 -201.58412,1051.2086 -187.07456,1044.8606 C -189.7951,1029.4442 -192.06222,1013.121 -193.87592,995.89086"
       style="stroke:#dddddd;stroke-width:5.44108534"
       id="path5113" />
    <path
       d="M -150.34724,955.08272 C -133.11713,960.52381 -116.79388,964.60462 -101.37747,967.32516 C -90.495299,952.8156 -84.147366,937.85262 -82.333671,922.43621 C -88.681604,906.11296 -100.47062,891.60339 -117.70073,878.90753 C -134.02398,885.25546 -148.98696,892.05682 -162.58968,899.3116 C -157.14859,921.07594 -153.06778,939.66631 -150.34724,955.08272"
       style="stroke:#dddddd;stroke-width:5.44108534"
       id="path5115" />
    <path
       d="M -260.52921,919.71567 C -247.83335,904.29926 -233.77721,891.60339 -218.3608,881.62807 C -221.98819,869.83905 -225.16216,857.59661 -227.8827,844.90075 C -249.64704,845.8076 -266.42372,851.24868 -278.21274,861.224 C -287.28121,876.64041 -292.7223,891.14997 -294.53599,904.75268 C -280.93328,911.10062 -269.59769,916.08828 -260.52921,919.71567"
       style="stroke:#dddddd;stroke-width:5.44108534"
       id="path5119" />
    <path
       d="M -63.289873,1017.6552 C -72.358349,1021.2826 -82.333671,1021.736 -93.215842,1019.0155 C -107.7254,1038.9661 -122.68839,1051.662 -138.10479,1057.1031 C -138.10479,1077.9606 -135.83768,1088.3893 -131.30344,1088.3893 L -97.687159,1055.3893"
       style="stroke:#dddddd;stroke-width:5.44108534"
       id="path5123" />
    <path
       d="M -304.05789,1002.6922 C -314.03322,978.20733 -318.56745,959.16354 -317.66061,945.56082 L -321.74142,944.20055"
       style="stroke:#dddddd;stroke-width:5.44108534"
       id="path5125" />
    <g
       transform="matrix(-1.3602713,0,0,-1.3602713,-185.71429,952.36218)"
       style="stroke:#dddddd;stroke-width:4"
       id="g5127">
      <path
         d="M 6,-32 C -10,-18.666667 -20.666667,-8.6666667 -26,-2 M 46,-19 C 51.333333,-3 54.333333,11.333333 55,24 M 64,-47 C 72.666667,-45 80.333333,-41.666667 87,-37 M 37,-76 C 38.333333,-85.333333 38,-93.333333 36,-100 M 1,-68 C -8.3333333,-74 -20.333333,-77 -35,-77 M -62,-11 C -65.333333,-20.333333 -67.333333,-33 -68,-49 M -76,22 C -82,23.333333 -88.333333,23.333333 -95,22 M -50,54 C -49.333333,64.666667 -46.666667,74 -42,82 M -17,39 C -5.6666667,45 8,49.333333 24,52 M 31,79 C 23.666667,87.666667 12.333333,93 -3,95 M 80,35 C 86.666667,28.333333 92.333333,18.333333 97,5"
         id="path5129" />
    </g>
    <path
       d="M -193.87592,995.89086 C -212.01287,992.26347 -230.14982,986.36896 -248.28677,978.20733 C -258.26209,992.7169 -266.42372,1005.4128 -272.77165,1016.2949 C -260.07579,1035.3387 -247.83335,1048.488 -236.04433,1055.7428 C -217.90738,1054.836 -201.58412,1051.2086 -187.07456,1044.8606 C -189.7951,1029.4442 -192.06222,1013.121 -193.87592,995.89086"
       style="stroke:#999999;stroke-width:2.72054267"
       id="path5135" />
    <path
       d="M -150.34724,955.08272 C -133.11713,960.52381 -116.79388,964.60462 -101.37747,967.32516 C -90.495299,952.8156 -84.147366,937.85262 -82.333671,922.43621 C -88.681604,906.11296 -100.47062,891.60339 -117.70073,878.90753 C -134.02398,885.25546 -148.98696,892.05682 -162.58968,899.3116 C -157.14859,921.07594 -153.06778,939.66631 -150.34724,955.08272"
       style="stroke:#999999;stroke-width:2.72054267"
       id="path5137" />
    <path
       d="M -260.52921,919.71567 C -247.83335,904.29926 -233.77721,891.60339 -218.3608,881.62807 C -221.98819,869.83905 -225.16216,857.59661 -227.8827,844.90075 C -249.64704,845.8076 -266.42372,851.24868 -278.21274,861.224 C -287.28121,876.64041 -292.7223,891.14997 -294.53599,904.75268 C -280.93328,911.10062 -269.59769,916.08828 -260.52921,919.71567"
       style="stroke:#999999;stroke-width:2.72054267"
       id="path5141" />
    <path
       d="M -63.289873,1017.6552 C -72.358349,1021.2826 -82.333671,1021.736 -93.215842,1019.0155 C -107.7254,1038.9661 -122.68839,1051.662 -138.10479,1057.1031 C -138.10479,1077.9606 -135.83768,1088.3893 -131.30344,1088.3893 L -90.68716,1055.3893"
       style="stroke:#999999;stroke-width:2.72054267"
       id="path5145" />
    <path
       d="M -304.05789,1002.6922 C -314.03322,978.20733 -318.56745,959.16354 -317.66061,945.56082 L -321.74142,944.20055"
       style="stroke:#999999;stroke-width:2.72054267"
       id="path5147" />
    <g
       transform="matrix(-1.3602713,0,0,-1.3602713,-185.71429,952.36218)"
       style="stroke:#999999;stroke-width:2"
       id="g5149">
      <path
         d="M 6,-32 C -10,-18.666667 -20.666667,-8.6666667 -26,-2 M 46,-19 C 51.333333,-3 54.333333,11.333333 55,24 M 64,-47 C 72.666667,-45 80.333333,-41.666667 87,-37 M 37,-76 C 38.333333,-85.333333 38,-93.333333 36,-100 M 1,-68 C -8.3333333,-74 -20.333333,-77 -35,-77 M -62,-11 C -65.333333,-20.333333 -67.333333,-33 -68,-49 M -76,22 C -82,23.333333 -88.333333,23.333333 -95,22 M -50,54 C -49.333333,64.666667 -46.666667,74 -42,82 M -17,39 C -5.6666667,45 8,49.333333 24,52 M 31,79 C 23.666667,87.666667 12.333333,93 -3,95 M 80,35 C 86.666667,28.333333 92.333333,18.333333 97,5"
         id="path5151" />
    </g>
    <path
       d="M -193.87592,995.89086 C -212.01287,992.26347 -230.14982,986.36896 -248.28677,978.20733 C -258.26209,992.7169 -266.42372,1005.4128 -272.77165,1016.2949 C -260.07579,1035.3387 -247.83335,1048.488 -236.04433,1055.7428 C -217.90738,1054.836 -201.58412,1051.2086 -187.07456,1044.8606 C -189.7951,1029.4442 -192.06222,1013.121 -193.87592,995.89086"
       style="stroke:#000000;stroke-width:1.36027133"
       id="path5157" />
    <path
       d="M -150.34724,955.08272 C -133.11713,960.52381 -116.79388,964.60462 -101.37747,967.32516 C -90.495299,952.8156 -84.147366,937.85262 -82.333671,922.43621 C -88.681604,906.11296 -100.47062,891.60339 -117.70073,878.90753 C -134.02398,885.25546 -148.98696,892.05682 -162.58968,899.3116 C -157.14859,921.07594 -153.06778,939.66631 -150.34724,955.08272"
       style="stroke:#000000;stroke-width:1.36027133"
       id="path5159" />
    <path
       d="M -260.52921,919.71567 C -247.83335,904.29926 -233.77721,891.60339 -218.3608,881.62807 C -221.98819,869.83905 -225.16216,857.59661 -227.8827,844.90075 C -249.64704,845.8076 -266.42372,851.24868 -278.21274,861.224 C -287.28121,876.64041 -292.7223,891.14997 -294.53599,904.75268 C -280.93328,911.10062 -269.59769,916.08828 -260.52921,919.71567"
       style="stroke:#000000;stroke-width:1.36027133"
       id="path5163" />
    <path
       d="M -63.289873,1017.6552 C -72.358349,1021.2826 -82.333671,1021.736 -93.215842,1019.0155 C -107.7254,1038.9661 -122.68839,1051.662 -138.10479,1057.1031 C -138.10479,1077.9606 -135.83768,1088.3893 -131.30344,1088.3893 L -85.68716,1048.3893"
       style="stroke:#000000;stroke-width:1.36027133"
       id="path5167" />
    <path
       d="M -304.05789,1002.6922 C -314.03322,978.20733 -318.56745,959.16354 -317.66061,945.56082 L -321.74142,944.20055"
       style="stroke:#000000;stroke-width:1.36027133"
       id="path5169" />
    <path
       d="M -193.87592,995.89086 C -172.11158,977.75391 -157.60202,964.1512 -150.34724,955.08272 M -248.28677,978.20733 C -255.54155,956.44299 -259.62236,936.94577 -260.52921,919.71567 M -272.77165,1016.2949 C -284.56067,1013.5744 -294.98942,1009.0402 -304.05789,1002.6922 M -236.04433,1055.7428 C -237.85802,1068.4387 -237.4046,1079.3208 -234.68406,1088.3893 M -187.07456,1044.8606 C -174.3787,1053.0223 -158.05544,1057.1031 -138.10479,1057.1031 M -101.37747,967.32516 C -96.843232,980.02103 -94.12269,997.25113 -93.215842,1019.0155 M -82.333671,922.43621 C -74.172043,920.62252 -65.556992,920.62252 -56.488517,922.43621 M -117.70073,878.90753 C -118.60757,864.39797 -122.23496,851.7021 -128.5829,840.81993 M -162.58968,899.3116 C -178.00609,891.14997 -196.59646,885.25546 -218.3608,881.62807 M -227.8827,844.90075 C -217.90738,833.11173 -202.49097,825.85695 -181.63348,823.13641 M -294.53599,904.75268 C -303.60447,913.82116 -311.31267,927.42387 -317.66061,945.56082"
       style="stroke:#000000;stroke-width:1.36027133"
       id="path5173" />
    <circle
       cx="0"
       cy="0"
       r="100"
       transform="matrix(-1.3602713,0,0,-1.3602713,-185.71429,952.36218)"
       style="fill:url(#shadow2);stroke:none"
       id="circle5034" />
    <path
       d="M 156.96875,5.96875 C 73.62079,5.96875 5.96875,73.620794 5.96875,156.96875 C 5.96875,240.31671 73.620794,307.93751 156.96875,307.9375 C 240.31671,307.9375 307.93749,240.31671 307.9375,156.96875 C 307.9375,73.62079 240.31671,5.9687499 156.96875,5.96875 z M 156.96875,39 C 180.98094,39 203.33088,46.188456 221.96875,58.53125 L 58.53125,221.96875 C 46.188457,203.33088 39,180.98094 39,156.96875 C 39,91.861071 91.861074,39 156.96875,39 z M 250.78125,85.53125 C 265.90629,105.36714 274.90625,130.11897 274.90625,156.96875 C 274.90625,222.07642 222.07643,274.90625 156.96875,274.90625 C 130.11897,274.90625 105.36714,265.90629 85.53125,250.78125 L 250.78125,85.53125 z "
       transform="translate(-342.21429,795.86218)"
       style="opacity:1;fill:#ff0000;fill-opacity:1;fill-rule:evenodd;stroke:none;stroke-width:5;stroke-linecap:round;stroke-linejoin:miter;stroke-miterlimit:4;stroke-dasharray:none;stroke-dashoffset:0;stroke-opacity:1"
       id="path5070" />
  </g>
</svg>
